<svg xmlns="http://www.w3.org/2000/svg" width="464" height="124" viewBox="0 0 464 124"><defs><style>.a,.e{fill:#e0dfe0;}.b{fill:#fff;}.c{fill:#f0eef0;}.d,.g{fill:none;}.d{stroke:#dfdfdf;stroke-dasharray:6;}.e{font-size:14px;font-family:FontAwesome5Free-Regular, "Font Awesome 5 Free";}.f{stroke:none;}</style></defs><g transform="translate(-851 -503)"><rect class="a" width="198" height="124" rx="5" transform="translate(851 503)"/><rect class="a" width="198" height="124" rx="5" transform="translate(1117 503)"/><rect class="b" width="147" height="12" transform="translate(856 510)"/><circle class="b" cx="5" cy="5" r="5" transform="translate(1006 511)"/><circle class="b" cx="5" cy="5" r="5" transform="translate(1273 508)"/><circle class="b" cx="5" cy="5" r="5" transform="translate(1019 511)"/><circle class="b" cx="5" cy="5" r="5" transform="translate(1286 508)"/><circle class="b" cx="5" cy="5" r="5" transform="translate(1032 511)"/><circle class="b" cx="5" cy="5" r="5" transform="translate(1299 508)"/><rect class="c" width="186" height="93" transform="translate(856 530)"/><rect class="b" width="186" height="78" transform="translate(856 545)"/><rect class="c" width="38" height="60" transform="translate(865 555)"/><g class="d" transform="translate(911 556)"><rect class="f" width="123" height="38" rx="6"/><rect class="g" x="0.5" y="0.5" width="122" height="37" rx="5.5"/></g><rect class="c" width="40" height="26" transform="translate(1123 522)"/><rect class="c" width="40" height="67" transform="translate(1123 556)"/><rect class="b" width="146" height="101" transform="translate(1163 522)"/><text class="e" transform="translate(1177 547)"><tspan x="0" y="0"></tspan></text><text class="e" transform="translate(1177 577)"><tspan x="0" y="0"></tspan></text><text class="e" transform="translate(1177 608)"><tspan x="0" y="0"></tspan></text><text class="e" transform="translate(1204 547)"><tspan x="0" y="0"></tspan></text><text class="e" transform="translate(1204 577)"><tspan x="0" y="0"></tspan></text><text class="e" transform="translate(1204 608)"><tspan x="0" y="0"></tspan></text><text class="e" transform="translate(1231 547)"><tspan x="0" y="0"></tspan></text><text class="e" transform="translate(1231 577)"><tspan x="0" y="0"></tspan></text><text class="e" transform="translate(1231 608)"><tspan x="0" y="0"></tspan></text><text class="e" transform="translate(1258 547)"><tspan x="0" y="0"></tspan></text><text class="e" transform="translate(1258 577)"><tspan x="0" y="0"></tspan></text><text class="e" transform="translate(1258 608)"><tspan x="0" y="0"></tspan></text><text class="e" transform="translate(1285 547)"><tspan x="0" y="0"></tspan></text><text class="e" transform="translate(1285 577)"><tspan x="0" y="0"></tspan></text><text class="e" transform="translate(1285 608)"><tspan x="0" y="0"></tspan></text></g></svg>