<svg xmlns="http://www.w3.org/2000/svg" width="183.604" height="55.807" viewBox="0 0 183.604 55.807"><g transform="translate(-1441.193 -4854.553)"><g transform="translate(1513.339 4873.597)"><g transform="translate(0 5.448)"><path d="M2378.306,3911.618a8.963,8.963,0,0,1-2.675-1.036l1.5-3.4a9.545,9.545,0,0,0,2.211.918,8.636,8.636,0,0,0,2.349.345,3.638,3.638,0,0,0,1.382-.187.6.6,0,0,0,.415-.562q0-.434-.543-.652a11.743,11.743,0,0,0-1.786-.473,20.206,20.206,0,0,1-2.665-.721,4.539,4.539,0,0,1-1.856-1.263,3.425,3.425,0,0,1-.79-2.379,4.1,4.1,0,0,1,.73-2.369,4.828,4.828,0,0,1,2.181-1.678,9.071,9.071,0,0,1,3.524-.612,12.789,12.789,0,0,1,2.793.306,8.759,8.759,0,0,1,2.418.9l-1.4,3.376a8.572,8.572,0,0,0-3.85-1.027q-1.8,0-1.8.869,0,.414.533.622a11.237,11.237,0,0,0,1.757.444,18.085,18.085,0,0,1,2.665.681,4.637,4.637,0,0,1,1.885,1.254,3.362,3.362,0,0,1,.8,2.369,4.053,4.053,0,0,1-.73,2.359,4.915,4.915,0,0,1-2.181,1.678,8.937,8.937,0,0,1-3.524.622A14.5,14.5,0,0,1,2378.306,3911.618Z" transform="translate(-2375.631 -3897.552)" fill="#f1f2f2"/></g><g transform="translate(13.286 0)"><path d="M2474.892,3877.371a7.084,7.084,0,0,1,0-12.595,9.117,9.117,0,0,1,8.015,0,7.084,7.084,0,0,1,0,12.595,9.117,9.117,0,0,1-8.015,0Zm5.666-14.332-1.658-1.2-1.658,1.2h-2.764l2.547-2.566h3.751l2.547,2.566Zm-.089,11.065a3.043,3.043,0,0,0,1.115-1.2,4.229,4.229,0,0,0,0-3.652,3.045,3.045,0,0,0-1.115-1.2,3.114,3.114,0,0,0-3.139,0,3.038,3.038,0,0,0-1.115,1.2,4.229,4.229,0,0,0,0,3.652,3.036,3.036,0,0,0,1.115,1.2,3.114,3.114,0,0,0,3.139,0Zm3.307-15.7h4.244l-3.3,2.566h-2.961Z" transform="translate(-2471.102 -3858.4)" fill="#f1f2f2"/></g><g transform="translate(36.501 5.764)"><path d="M2651.546,3899.822v13.819h-4.659v-5.094h-4.3v5.094h-4.659v-13.819h4.659v4.9h4.3v-4.9Z" transform="translate(-2637.924 -3899.822)" fill="#f1f2f2"/></g><g transform="translate(51.82 5.448)"><path d="M2751.8,3911.075a7.084,7.084,0,0,1,0-12.595,9.117,9.117,0,0,1,8.015,0,7.084,7.084,0,0,1,0,12.595,9.117,9.117,0,0,1-8.015,0Zm5.577-3.267a3.036,3.036,0,0,0,1.115-1.2,4.229,4.229,0,0,0,0-3.652,3.041,3.041,0,0,0-1.115-1.2,3.113,3.113,0,0,0-3.139,0,3.038,3.038,0,0,0-1.115,1.2,4.226,4.226,0,0,0,0,3.652,3.034,3.034,0,0,0,1.115,1.2,3.113,3.113,0,0,0,3.139,0Z" transform="translate(-2748.005 -3897.552)" fill="#f1f2f2"/></g><g transform="translate(67.613 1.481)"><path d="M2872.408,3884.733h-5.251l-.928,2.408h-4.738l6.041-13.819h4.58l6.041,13.819h-4.817Zm-2.053-15.694h4.244l-3.889,3.158h-2.961Zm.77,12.338-1.343-3.474-1.342,3.474Z" transform="translate(-2861.491 -3869.039)" fill="#f1f2f2"/></g></g><g transform="translate(1513.468 4894.957)"><g transform="translate(0 2.701)"><path d="M2383.555,4040.717l-2.271-3.266-2.231,3.266h-2.5l3.481-4.784-3.306-4.623h2.473l2.164,3.051,2.123-3.051h2.352l-3.279,4.542,3.508,4.865Z" transform="translate(-2376.553 -4031.309)" fill="#d1d3d4"/></g><g transform="translate(9.434 0)"><path d="M2451.779,4021.991h-4.368l-.833,2.016h-2.231l4.193-9.407h2.15l4.206,9.407h-2.284Zm-.994-8.157-1.169-1.022-1.169,1.022h-1.532l1.774-1.935h1.855l1.774,1.935Zm.309,6.5-1.492-3.6-1.492,3.6Z" transform="translate(-2444.347 -4011.898)" fill="#d1d3d4"/></g><g transform="translate(19.661 2.701)"><path d="M2523.657,4037.384v3.333h-2.177v-3.36l-3.642-6.047h2.312l2.513,4.179,2.513-4.179h2.137Z" transform="translate(-2517.838 -4031.309)" fill="#d1d3d4"/></g><g transform="translate(33.853 2.701)"><path d="M2619.817,4031.309h4.273a6.006,6.006,0,0,1,2.708.585,4.377,4.377,0,0,1,1.828,1.646,5.016,5.016,0,0,1,0,4.946,4.376,4.376,0,0,1-1.828,1.646,6.006,6.006,0,0,1-2.708.585h-4.273Zm4.166,7.62a3.16,3.16,0,0,0,2.251-.786,3.121,3.121,0,0,0,0-4.26,3.161,3.161,0,0,0-2.251-.786h-1.989v5.833Z" transform="translate(-2619.817 -4031.309)" fill="#d1d3d4"/></g><g transform="translate(44.873 0.591)"><path d="M2700.128,4026.71a4.293,4.293,0,0,1-1.122-3.185v-5.268h2.177v5.188q0,2.527,2.1,2.527a1.964,1.964,0,0,0,1.559-.612,2.85,2.85,0,0,0,.538-1.915v-5.187h2.15v5.268a4.449,4.449,0,0,1-7.4,3.185Zm6.283-8.453h.363a.766.766,0,0,0,.584-.235.855.855,0,0,0,.222-.612,1.251,1.251,0,0,0-.269-.806l1.236-.457a2.153,2.153,0,0,1,.43,1.344,2.1,2.1,0,0,1-.6,1.586,2.288,2.288,0,0,1-1.66.578h-.309Z" transform="translate(-2699.006 -4016.147)" fill="#d1d3d4"/></g><g transform="translate(55.718 2.701)"><path d="M2785.568,4031.309v9.407h-1.787l-4.691-5.711v5.711h-2.15v-9.407h1.8l4.677,5.711v-5.711Z" transform="translate(-2776.94 -4031.309)" fill="#d1d3d4"/></g><g transform="translate(65.986 2.54)"><path d="M2857.669,4034.867h1.989v3.817a5.686,5.686,0,0,1-1.774.887,6.89,6.89,0,0,1-2.03.309,5.5,5.5,0,0,1-2.634-.625,4.651,4.651,0,0,1-1.834-1.733,5.055,5.055,0,0,1,0-5.013,4.633,4.633,0,0,1,1.848-1.734,5.607,5.607,0,0,1,2.661-.625,5.829,5.829,0,0,1,2.245.417,4.445,4.445,0,0,1,1.693,1.209l-1.4,1.29A3.234,3.234,0,0,0,2856,4032a3.325,3.325,0,0,0-1.6.376,2.7,2.7,0,0,0-1.088,1.062,3.34,3.34,0,0,0,0,3.131,2.752,2.752,0,0,0,1.082,1.068,3.206,3.206,0,0,0,1.579.383,3.529,3.529,0,0,0,1.694-.4Z" transform="translate(-2850.721 -4030.15)" fill="#d1d3d4"/></g><g transform="translate(79.505 2.701)"><path d="M2958.153,4031.309l-4.072,9.407h-2.15l-4.059-9.407h2.352l2.863,6.719,2.9-6.719Z" transform="translate(-2947.872 -4031.309)" fill="#d1d3d4"/></g><g transform="translate(90.767 2.701)"><path d="M3028.8,4031.309h2.177v9.407H3028.8Z" transform="translate(-3028.799 -4031.309)" fill="#d1d3d4"/></g><g transform="translate(95.175 0)"><path d="M3067.758,4022.259v1.747h-7.284V4014.6h7.109v1.747h-4.946v2.043h4.368v1.693h-4.368v2.177Zm-2.553-8.426-1.169-1.022-1.169,1.022h-1.532l1.774-1.935h1.855l1.774,1.935Z" transform="translate(-3060.474 -4011.898)" fill="#d1d3d4"/></g><g transform="translate(103.131 2.701)"><path d="M3120.655,4033.083h-3.01v-1.774h8.2v1.774h-3.01v7.634h-2.177Z" transform="translate(-3117.644 -4031.309)" fill="#d1d3d4"/></g></g><g transform="translate(1441.193 4854.553)"><path d="M229.793,609.17l-.007,5.577-5.538,3.279.016-5.546Z" transform="translate(-214.559 -573.662)" fill="#ffcf0e"/><path d="M271.06,404.15l-.005,4.136-4.154,2.518.005-4.136Z" transform="translate(-254.44 -381.968)" fill="#ffcf0e"/><path d="M166.41,519.117l-.007,5.515-5.538,3.358.007-5.515Z" transform="translate(-155.296 -489.462)" fill="#ffcf0e"/><path d="M79.352,668.421l-.005,4.136-4.154,2.518.005-4.136Z" transform="translate(-75.193 -629.061)" fill="#ffcf0e"/><path d="M565.472,400.256V405.9l11.084,6.638v-9.7l-11.084-6.616Z" transform="translate(-533.604 -374.554)" fill="none"/><path d="M565.472,101.22v5.5l11.084,6.655v-9.7l-11.084-6.655Z" transform="translate(-533.604 -94.794)" fill="none"/><path d="M821.727,761.4h8.308v-4.272l-8.313-5Z" transform="translate(-773.198 -707.334)" fill="none"/><path d="M565.472,400.256V405.9l11.084,6.638v-9.7l-11.084-6.616Z" transform="translate(-533.604 -374.554)" fill="none"/><path d="M565.472,101.22v5.5l11.084,6.655v-9.7l-11.084-6.655Z" transform="translate(-533.604 -94.794)" fill="none"/><path d="M565.472,699.776v7.483h11.084v-6.417l-11.084-6.615Z" transform="translate(-533.604 -653.191)" fill="none"/><path d="M821.727,761.4h8.308v-4.272l-8.313-5Z" transform="translate(-773.198 -707.334)" fill="none"/><path d="M821.721,549.4v9.608l8.316,5-.005-2.077v-3.955l.007-3.576Z" transform="translate(-773.198 -517.779)" fill="none"/><path d="M173.306,93.407l-11.091-6.681L159.447,88.5l0-17.3-13.882-8.318L131.715,71.2V83.681l6.927-4.247-.009,6.976-6.927,4.247v6.888l6.927-4.247-.018,6.9-13.855,8.551.018,5.38-6.928,4.208h55.455l-.036-19.189ZM158.03,116.292v.662H146.946V103.922l11.084,6.615Zm0-19.21v3.791l-11.084-6.638V84.552l11.084,6.616Zm0-19.277v3.658l-11.084-6.655V65.1l11.084,6.655Zm13.886,39.149h-8.308l-.006-9.269,8.313,5Zm0-9.914.005,2.077-8.316-5V94.508l8.318,5-.007,3.576Z" transform="translate(-115.078 -62.885)" fill="#ffcf0e"/></g><g transform="translate(1561.998 4908.368)" fill="#d1d3d4" stroke="#707070" stroke-width="1"><circle cx="0.996" cy="0.996" r="0.996" stroke="none"/><circle cx="0.996" cy="0.996" r="0.496" fill="none"/></g><g transform="translate(1611.786 4908.368)" fill="#d1d3d4" stroke="#707070" stroke-width="1"><circle cx="0.996" cy="0.996" r="0.996" stroke="none"/><circle cx="0.996" cy="0.996" r="0.496" fill="none"/></g></g></svg>