<svg width="28" height="28" viewBox="0 0 28 28" fill="none" xmlns="http://www.w3.org/2000/svg">
<path d="M21.3229 28H6.56577C2.94023 28 0 25.048 0 21.408V6.59198C0 2.95196 2.94023 0 6.56577 0H21.3214C24.9484 0 27.8872 2.95196 27.8872 6.59198V21.4065C27.8887 25.048 24.9484 28 21.3229 28Z" fill="#3E97F1"/>
<path d="M27.8886 16.6315V21.4168C23.1047 25.7019 16.7998 21.6565 16.7998 21.6565C15.2597 22.7766 13.6326 23.3359 11.9186 23.3359C10.1441 23.3359 8.61283 22.8284 7.32473 21.8133C6.03663 20.7983 5.39258 19.437 5.39258 17.7294C5.39258 16.01 6.07052 14.5673 7.42642 13.4043C8.78231 12.2413 10.5317 11.6598 12.6761 11.6598C13.8713 11.6598 15.2464 11.9631 16.7983 12.5698V11.4748C16.7983 10.5589 16.4903 9.8072 15.8742 9.21977C15.2582 8.63234 14.4329 8.33788 13.3968 8.33788C12.1146 8.33788 11.0181 8.80842 10.1058 9.74802L5.50311 8.91348C6.83395 6.07989 9.72407 4.66235 14.1735 4.66235C15.8993 4.66235 17.3289 4.85767 18.4622 5.24683C19.5956 5.63598 20.4401 6.14055 20.9942 6.75906C21.5483 7.37757 21.9404 8.05526 22.1688 8.79214C22.3973 9.52902 22.5107 10.7261 22.5107 12.3833V18.0298C22.5107 18.7164 23.1194 19.1825 23.8003 19.1203C26.0449 18.9176 27.8886 16.6315 27.8886 16.6315ZM16.7998 16.4317C15.4188 15.5661 14.3164 15.1326 13.4911 15.1326C12.8382 15.1326 12.2428 15.3249 11.7078 15.7082C11.1713 16.0914 10.9031 16.6492 10.9031 17.3787C10.9031 18.0342 11.1183 18.598 11.5501 19.067C11.9819 19.5376 12.5361 19.7729 13.214 19.7729C14.2737 19.7729 15.4689 19.1484 16.8012 17.8981V16.4317H16.7998Z" fill="white"/>
</svg>
